<svg width="135" height="32" viewBox="0 0 135 32" fill="none" xmlns="http://www.w3.org/2000/svg">
<path d="M121.836 16.3557C121.65 16.3606 121.465 16.328 121.292 16.2598C121.119 16.1916 120.962 16.0892 120.83 15.9589C120.698 15.8287 120.595 15.6732 120.526 15.5021C120.456 15.3309 120.424 15.1476 120.428 14.9634C120.436 14.0841 121.167 13.5898 121.836 13.5817C122.52 13.5747 123.237 14.1469 123.244 14.9634C123.25 15.7798 122.524 16.4022 121.836 16.3557Z" fill="#130F33"/>
<path d="M58.2954 16.0361V0.557974C58.2954 0.140329 58.2739 0.17111 58.6937 0.17111C62.5496 0.17111 66.4058 0.17111 70.2622 0.17111C71.6572 0.157579 73.0417 0.40983 74.3403 0.914088C75.3382 1.31034 76.2626 1.86881 77.0749 2.56647C77.994 3.34837 78.7475 4.26217 79.2886 5.33551C79.7598 6.27734 80.0562 7.29552 80.1634 8.34131C80.2166 8.79698 80.2412 9.2555 80.2369 9.71419C80.1938 11.8395 79.5625 13.7588 78.1672 15.3986C76.8511 16.9455 75.2117 18.0062 73.2328 18.5388C72.9506 18.6148 72.9487 18.6148 73.102 18.8679C74.9975 21.993 76.8929 25.1182 78.7881 28.2432C79.4828 29.3885 80.1787 30.5332 80.8756 31.6776C80.8864 31.6949 80.8972 31.712 80.9073 31.7303C80.9994 31.8979 80.9834 31.9299 80.787 31.9299C79.6306 31.9299 78.4747 31.9299 77.3183 31.9336C77.1712 31.9336 77.0958 31.8708 77.0253 31.7522C76.193 30.3704 75.3588 28.9886 74.5222 27.6072C73.1217 25.291 71.7215 22.9745 70.3213 20.6578C70.0157 20.1522 69.7042 19.6498 69.4111 19.1373C69.3096 18.9602 69.1929 18.8943 68.9842 18.8955C67.4338 18.9043 65.8831 18.9006 64.3321 18.8999C63.9929 18.8999 63.9935 18.8999 63.9923 18.5576C63.9923 17.9409 63.9923 17.3242 63.9839 16.7074C63.9839 16.4562 63.9439 16.205 63.9553 15.9481C63.9553 15.8935 63.9553 15.8389 63.9642 15.7842C63.9658 15.7564 63.9781 15.7302 63.9987 15.7113C64.0193 15.6923 64.0464 15.6819 64.0748 15.6825C64.1508 15.6781 64.2268 15.6775 64.3028 15.6775C66.2694 15.6775 68.2356 15.6862 70.2022 15.6737C71.3121 15.6668 72.3938 15.4897 73.4111 15.0212C73.9325 14.7807 74.4167 14.4682 74.8491 14.0929C75.269 13.7334 75.6386 13.3201 75.9483 12.8638C76.4088 12.1917 76.704 11.4221 76.8105 10.6167C76.9548 9.51698 76.9176 8.42859 76.5313 7.37223C76.1985 6.47315 75.6356 5.67516 74.8971 5.05665C74.131 4.3955 73.2184 3.92217 72.2331 3.67495C71.8237 3.57337 71.4069 3.50304 70.9868 3.46457C70.5648 3.42374 70.1437 3.43065 69.722 3.43001C67.126 3.43001 64.5297 3.43001 61.933 3.43001C61.5735 3.43001 61.5908 3.4181 61.5908 3.76476C61.5908 13.0145 61.5908 22.2646 61.5908 31.5148C61.5908 31.9643 61.6243 31.9262 61.1777 31.9268H58.6442C58.5808 31.9268 58.5173 31.9268 58.4539 31.9268C58.3271 31.9162 58.3037 31.8942 58.2948 31.7617C58.2896 31.6861 58.2948 31.6108 58.2948 31.5355L58.2954 16.0361Z" fill="#130F33"/>
<path d="M92.1904 31.6684C92.3914 31.4947 92.5767 31.3313 92.7651 31.1723C93.759 30.3308 94.756 29.4924 95.6779 28.5717C95.749 28.4965 95.845 28.4486 95.9487 28.4373C96.4784 28.377 97.0017 28.2719 97.5136 28.1231C98.6008 27.8074 99.6011 27.2509 100.439 26.496C101.106 25.9057 101.682 25.223 102.152 24.4693C102.744 23.4904 103.132 22.4038 103.293 21.2738C103.378 20.7183 103.42 20.1574 103.42 19.5957C103.42 13.2496 103.42 6.9036 103.42 0.557888C103.42 0.186079 103.366 0.162856 103.818 0.164106C104.739 0.164106 105.657 0.164106 106.581 0.164106C106.636 0.164106 106.692 0.164106 106.747 0.164106C106.922 0.173523 106.949 0.199885 106.956 0.372624C106.956 0.435405 106.956 0.498216 106.956 0.557248C106.956 6.96327 106.956 13.3708 106.956 19.7797C106.956 21.2135 106.759 22.6216 106.294 23.9875C105.83 25.3708 105.092 26.649 104.124 27.747C103.411 28.5541 102.63 29.2894 101.732 29.8968C100.735 30.5704 99.6368 31.0836 98.4776 31.4173C97.6986 31.6385 96.9008 31.7873 96.094 31.8619C95.3768 31.9278 94.6562 31.9406 93.9372 31.9009C93.4063 31.875 92.8781 31.7955 92.3514 31.7394C92.2905 31.7379 92.2326 31.7123 92.1904 31.6684Z" fill="#130F33"/>
<path d="M43.1403 25.5472V31.59C43.1403 31.9185 43.1403 31.9191 42.8097 31.9191H40.214C40.1582 31.9191 40.1031 31.9191 40.0477 31.9191C39.9209 31.9085 39.8963 31.8865 39.8874 31.7552C39.8821 31.6799 39.8874 31.6046 39.8874 31.529C39.8874 27.6439 39.8874 23.7595 39.8874 19.8752C39.8923 19.6709 39.8351 19.4699 39.7224 19.2987C38.6805 17.6896 37.6444 16.0776 36.6142 14.4627C35.3116 12.4329 34.0086 10.4033 32.7063 8.37388L28.7984 2.28189C28.4014 1.66304 28.0046 1.04422 27.6085 0.425372C27.566 0.358812 27.4816 0.288473 27.5183 0.208717C27.5552 0.128961 27.6679 0.16474 27.7467 0.16474C28.8541 0.16474 29.9616 0.16474 31.0691 0.159711C31.1439 0.154073 31.2187 0.170134 31.2843 0.205944C31.3498 0.241753 31.4034 0.295756 31.4385 0.361311C32.1107 1.41518 32.7906 2.46462 33.4681 3.51535C34.5227 5.14826 35.5775 6.78117 36.6327 8.41408C37.4422 9.66638 38.2517 10.9183 39.0615 12.1697C40.0671 13.7281 41.0718 15.2878 42.0759 16.8487C42.312 17.195 42.5274 17.5547 42.7213 17.9257C42.999 18.4804 43.1427 19.0911 43.1415 19.71C43.1375 21.6557 43.1372 23.6013 43.1403 25.5472Z" fill="#130F33"/>
<path d="M82.6028 10.42V0.532703C82.6028 0.165923 82.6028 0.165923 82.9648 0.165283H85.7483C85.8034 0.165283 85.8594 0.165283 85.9145 0.168422C86.0647 0.180369 86.0915 0.206122 86.0992 0.356857C86.1035 0.438502 86.0992 0.520756 86.0992 0.603042C86.0992 6.96719 86.0992 13.3326 86.0992 19.6993C86.0908 20.7767 86.2586 21.8483 86.5956 22.8727C86.9912 24.0548 87.6585 25.13 88.5456 26.0129C89.2129 26.6837 89.9479 27.2527 90.8101 27.6571C91.2776 27.8646 91.7628 28.031 92.2595 28.1551C92.4498 28.206 92.6332 28.2575 92.8182 28.3148C92.945 28.3538 92.945 28.3776 92.857 28.4818C92.8296 28.5126 92.7985 28.5409 92.7696 28.5699C91.9665 29.3641 91.161 30.1561 90.3635 30.9561C90.2296 31.0912 90.1212 31.1265 89.9329 31.0506C88.7161 30.5667 87.5911 29.8825 86.6052 29.027C84.7593 27.4209 83.5502 25.4354 82.9777 23.0704C82.798 22.3102 82.6825 21.5363 82.6333 20.7569C82.597 20.2431 82.6016 19.73 82.6016 19.2169C82.6007 16.2865 82.601 13.3542 82.6028 10.42Z" fill="#130F33"/>
<path d="M53.768 0.162942H55.4292C55.4502 0.162942 55.4711 0.162942 55.4926 0.162942C55.556 0.167941 55.6296 0.139689 55.6672 0.197472C55.7044 0.255255 55.6416 0.311148 55.6099 0.360763C55.2636 0.897113 54.9161 1.43304 54.5671 1.96853C53.2515 3.99041 51.936 6.01147 50.6204 8.03167C49.8814 9.1659 49.1411 10.2997 48.4002 11.4331C47.261 13.1837 46.1225 14.9345 44.9839 16.6854C44.8285 16.9247 44.826 16.9253 44.6669 16.6854C44.1227 15.8533 43.5791 15.0186 43.0272 14.1934C42.9352 14.0558 42.9413 13.961 43.0272 13.826C44.1291 12.1244 45.2271 10.4209 46.321 8.71558L50.493 2.23044C50.8984 1.60239 51.3056 0.97437 51.7051 0.33879C51.7347 0.2818 51.7805 0.234623 51.8368 0.203049C51.8932 0.171476 51.9575 0.156878 52.0221 0.161053C52.6051 0.166692 53.1869 0.162942 53.768 0.162942Z" fill="#130F33"/>
<path d="M0.901884 11.9324C1.07681 10.6037 1.44827 9.30779 2.00432 8.08624C2.48181 7.03387 3.09431 6.04684 3.8267 5.14953C5.91571 2.56777 8.87586 0.81954 12.1628 0.226291C12.7015 0.131663 13.2451 0.0664743 13.7911 0.0309696C14.2002 0.00335818 14.6086 -0.00733898 15.0165 0.00521719C16.4949 0.0453238 17.9572 0.316867 19.3494 0.809757C20.3424 1.16154 21.2914 1.62515 22.1772 2.19145C22.7873 2.5845 23.3663 3.02309 23.909 3.50342C26.3551 5.66159 27.9461 8.61073 28.398 11.8237C28.4512 12.1899 28.4829 12.5585 28.506 12.9291C28.5269 13.2575 28.5439 13.586 28.5362 13.9151C28.4937 15.7458 28.1311 17.5087 27.3945 19.1906C26.5505 21.1194 25.2701 22.8303 23.6522 24.1911C23.6036 24.2316 23.5719 24.288 23.5624 24.3498C23.5528 24.4117 23.5661 24.4748 23.6002 24.5278C24.4036 25.77 25.207 27.0122 26.0103 28.2544L28.2939 31.7918C28.3099 31.814 28.3247 31.8369 28.3382 31.8607C28.3897 31.9576 28.377 31.9862 28.2748 31.9945C28.2265 31.9969 28.1776 31.9969 28.1289 31.9945C26.9371 31.9945 25.7447 31.9908 24.5523 31.9984C24.471 32.0054 24.3897 31.989 24.318 31.9506C24.2463 31.9125 24.1878 31.854 24.1493 31.783C22.9908 29.9763 21.8279 28.1721 20.6607 26.3704C20.6462 26.3472 20.629 26.3253 20.6158 26.3012C20.5637 26.2028 20.4926 26.1927 20.3917 26.2384C20.1051 26.3603 19.821 26.4822 19.5264 26.5907C18.5328 26.9601 17.4992 27.2143 16.4462 27.3484C16.0658 27.3959 15.685 27.4112 15.3095 27.4557C15.2886 27.4557 15.2677 27.4557 15.2461 27.4557C15.0433 27.4557 15.0159 27.4361 15.0134 27.2377C15.0091 26.8251 15.0177 26.4131 15.0076 26.001C14.9968 25.529 14.9759 25.0554 15.0076 24.5836C15.0134 24.5019 15.0076 24.419 15.0116 24.3367C15.0146 24.2916 15.0334 24.2493 15.0651 24.2166C15.0965 24.184 15.1387 24.1633 15.1839 24.1584C15.4249 24.1334 15.6663 24.1106 15.9073 24.0844C16.8513 23.9735 17.7756 23.7336 18.6538 23.3722C18.7292 23.342 18.8173 23.2655 18.884 23.3094C18.9702 23.3685 18.8973 23.4758 18.884 23.5562C18.6938 24.5415 19.3205 25.8404 20.6355 26.0998C21.9775 26.364 23.1967 25.4781 23.3989 24.2407C23.6033 22.9927 22.8015 22.0118 21.7497 21.7147C21.6795 21.6946 21.5958 21.7022 21.5462 21.6268C21.5626 21.5445 21.633 21.505 21.6881 21.4566C23.5584 19.7832 24.7573 17.4992 25.066 15.0223C25.3375 12.8675 24.9487 10.805 23.9243 8.84113C23.6421 8.29988 23.3063 7.7876 22.9221 7.31187C21.3222 5.33354 19.3054 4.0739 16.8713 3.53295C14.5982 3.034 12.2225 3.29439 10.1146 4.2734C8.17163 5.174 6.55307 6.64112 5.47591 8.47813C4.82531 9.58201 4.38718 10.7958 4.18382 12.058C4.14512 12.2948 4.12038 12.5334 4.08676 12.7714C4.06202 12.9548 4.05186 12.9674 3.86792 12.9686C3.41058 12.9718 2.95324 12.9686 2.49591 12.9686H0.988777C0.967354 12.9687 0.946116 12.9644 0.926478 12.9559C0.906809 12.9474 0.889142 12.935 0.874613 12.9194C0.860054 12.9038 0.848943 12.8854 0.841956 12.8653C0.834969 12.8453 0.83226 12.824 0.834015 12.8028L0.901884 11.9324Z" fill="#130F33"/>
<path d="M21.1433 25.2839C20.9568 25.2888 20.7715 25.2562 20.5985 25.1876C20.4252 25.1193 20.2679 25.0169 20.1362 24.8865C20.0041 24.756 19.9004 24.6003 19.8314 24.429C19.7622 24.2574 19.729 24.074 19.7339 23.8896C19.7428 23.0104 20.4741 22.5142 21.1439 22.5079C21.8291 22.501 22.5463 23.0731 22.5527 23.8896C22.5589 24.7061 21.8303 25.3302 21.1433 25.2839Z" fill="#130F33"/>
<path d="M12.7755 21.2644V27.0272C12.7755 27.3374 12.7755 27.345 12.4637 27.2941C11.5394 27.1466 10.632 26.9095 9.75445 26.5865C9.57811 26.5237 9.55718 26.4073 9.55783 26.2509C9.56035 24.426 9.56035 22.6011 9.55783 20.7764C9.55783 20.1521 9.55783 19.5276 9.55783 18.9029C9.55783 18.8483 9.55783 18.793 9.55783 18.7384C9.54893 18.6034 9.53055 18.5832 9.39989 18.5745C9.33073 18.5694 9.26159 18.5745 9.19182 18.5745H1.99619C1.63082 18.5745 1.67207 18.5902 1.55787 18.2667C1.22889 17.3406 1.00133 16.3821 0.879165 15.4079C0.853156 15.2012 0.891232 15.1567 1.11895 15.1567C2.05519 15.1542 2.99101 15.1542 3.9264 15.1567H12.3893C12.7737 15.1567 12.7737 15.1567 12.7737 15.5442L12.7755 21.2644Z" fill="url(#paint0_linear_5790_10734)"/>
<path d="M119.791 16.2985C119.805 16.3024 119.819 16.3021 119.833 16.2978C119.846 16.2934 119.858 16.2851 119.867 16.274C119.876 16.2628 119.881 16.2494 119.882 16.2353C119.883 16.2212 119.88 16.2071 119.873 16.1949C119.643 15.8248 119.524 15.3972 119.531 14.9627C119.528 14.557 119.637 14.1581 119.848 13.81C120.058 13.462 120.362 13.1782 120.725 12.99C120.737 12.9828 120.746 12.9722 120.752 12.9596C120.758 12.9469 120.76 12.9328 120.758 12.919C120.756 12.9052 120.75 12.8923 120.741 12.8819C120.732 12.8715 120.719 12.8641 120.706 12.8606C116.054 11.5744 115.164 10.2348 115.164 8.11511C115.164 4.08497 120.081 3.64974 122.196 3.64974C126.572 3.64974 129.166 5.33227 129.901 8.65145L130.128 9.68082C130.132 9.69673 130.141 9.71096 130.153 9.72114C130.166 9.73129 130.182 9.7368 130.199 9.73671H133.734C133.744 9.73668 133.754 9.73439 133.764 9.73007C133.773 9.72574 133.782 9.71946 133.788 9.71163C133.795 9.70383 133.8 9.69465 133.802 9.68478C133.805 9.6749 133.806 9.66457 133.804 9.65446L133.56 8.13772C133.174 5.74114 131.297 0.166016 122.244 0.166016C115.666 0.166016 111.416 3.31752 111.416 8.1955C111.412 13.1206 115.161 15.0254 119.791 16.2985Z" fill="#130F33"/>
<path d="M123.841 13.6281C123.827 13.6245 123.813 13.6252 123.799 13.63C123.785 13.6348 123.774 13.6436 123.765 13.6551C123.756 13.6667 123.751 13.6805 123.751 13.6949C123.75 13.7092 123.754 13.7233 123.762 13.7354C124.011 14.0978 124.146 14.5255 124.148 14.9639C124.148 15.3716 124.039 15.772 123.832 16.1243C123.625 16.4767 123.327 16.7684 122.969 16.9698C122.957 16.9773 122.948 16.9881 122.942 17.001C122.936 17.0138 122.934 17.028 122.937 17.0419C122.939 17.0558 122.945 17.0686 122.955 17.0788C122.965 17.089 122.978 17.0961 122.991 17.0992C129.355 18.7114 130.417 20.2451 130.417 23.1347C130.417 26.4576 127.412 28.4409 122.379 28.4409C119.539 28.4409 114.615 27.6736 113.531 22.5324L113.312 21.4892C113.309 21.4733 113.3 21.459 113.287 21.4487C113.274 21.4385 113.258 21.4328 113.242 21.4327H109.597C109.587 21.4327 109.576 21.435 109.567 21.4395C109.557 21.444 109.548 21.4505 109.542 21.4586C109.535 21.4667 109.53 21.4762 109.527 21.4864C109.525 21.4966 109.525 21.5072 109.527 21.5175L109.834 23.0787C110.943 28.7003 115.499 31.9247 122.33 31.9247C125.808 31.9247 128.741 31.136 130.811 29.6426C133.006 28.0591 134.167 25.7807 134.167 23.0549C134.169 18.0903 131.345 15.4751 123.841 13.6281Z" fill="#130F33"/>
<defs>
<linearGradient id="paint0_linear_5790_10734" x1="0.86239" y1="15.1548" x2="13.6117" y2="16.1175" gradientUnits="userSpaceOnUse">
<stop stop-color="#46DF93"/>
<stop offset="1" stop-color="#CFF242"/>
</linearGradient>
</defs>
</svg>
