<svg width="100" height="24" viewBox="0 0 100 24" fill="none" xmlns="http://www.w3.org/2000/svg">
<path d="M90.7523 12.2666C90.6126 12.2703 90.4739 12.2458 90.3441 12.1947C90.2144 12.1435 90.0967 12.0667 89.9979 11.969C89.8991 11.8713 89.8215 11.7547 89.7698 11.6264C89.7178 11.498 89.6931 11.3605 89.6966 11.2224C89.7028 10.5629 90.2509 10.1922 90.7523 10.1861C91.2657 10.1809 91.8036 10.61 91.8085 11.2224C91.8131 11.8347 91.2685 12.3015 90.7523 12.2666Z" fill="#E4E5E5"/>
<path d="M43.096 12.027V0.418465C43.096 0.105232 43.0798 0.128317 43.3947 0.128317C46.2866 0.128317 49.1787 0.128317 52.0711 0.128317C53.1173 0.118169 54.1557 0.307357 55.1296 0.685551C55.8781 0.982739 56.5713 1.40159 57.1805 1.92484C57.8699 2.51126 58.435 3.19661 58.8408 4.00161C59.1943 4.70799 59.4166 5.47162 59.4969 6.25596C59.5368 6.59772 59.5553 6.94161 59.5521 7.28563C59.5198 8.87962 59.0463 10.3191 57.9998 11.5489C57.0127 12.7091 55.7832 13.5047 54.299 13.9041C54.0873 13.9611 54.0859 13.9611 54.2009 14.1509C55.6225 16.4948 57.0441 18.8386 58.4655 21.1824C58.9865 22.0414 59.5084 22.8999 60.0311 23.7581C60.0392 23.7712 60.0473 23.784 60.0549 23.7977C60.1239 23.9234 60.1119 23.9474 59.9646 23.9474C59.0973 23.9474 58.2305 23.9474 57.3631 23.9501C57.2528 23.9501 57.1962 23.9031 57.1434 23.8141C56.5191 22.7778 55.8935 21.7415 55.2661 20.7054C54.2157 18.9682 53.1655 17.2308 52.1154 15.4933C51.8861 15.1142 51.6525 14.7373 51.4327 14.353C51.3566 14.2202 51.2691 14.1707 51.1126 14.1716C49.9498 14.1782 48.7867 14.1754 47.6234 14.1749C47.369 14.1749 47.3695 14.1749 47.3686 13.9182C47.3686 13.4557 47.3686 12.9931 47.3623 12.5306C47.3623 12.3421 47.3323 12.1537 47.3409 11.9611C47.3409 11.9201 47.3409 11.8791 47.3476 11.8381C47.3487 11.8173 47.358 11.7977 47.3734 11.7834C47.3889 11.7692 47.4092 11.7614 47.4305 11.7619C47.4875 11.7585 47.5445 11.7581 47.6015 11.7581C49.0764 11.7581 50.5511 11.7647 52.026 11.7552C52.8585 11.7501 53.6697 11.6172 54.4327 11.2659C54.8237 11.0855 55.1869 10.8511 55.5112 10.5697C55.8261 10.3001 56.1034 9.99006 56.3356 9.64787C56.681 9.14373 56.9024 8.56654 56.9822 7.9625C57.0905 7.13772 57.0626 6.32143 56.7728 5.52915C56.5233 4.85485 56.1011 4.25636 55.5472 3.79247C54.9726 3.29661 54.2882 2.94162 53.5492 2.7562C53.2422 2.68002 52.9296 2.62726 52.6145 2.59842C52.298 2.56779 51.9822 2.57298 51.6659 2.5725C49.7189 2.5725 47.7717 2.5725 45.8242 2.5725C45.5545 2.5725 45.5675 2.56356 45.5675 2.82356C45.5675 9.76089 45.5675 16.6984 45.5675 23.6361C45.5675 23.9732 45.5926 23.9447 45.2577 23.9451H43.3575C43.31 23.9451 43.2624 23.9451 43.2148 23.9451C43.1197 23.9371 43.1022 23.9207 43.0955 23.8212C43.0916 23.7645 43.0955 23.7081 43.0955 23.6516L43.096 12.027Z" fill="#E4E5E5"/>
<path d="M68.5176 23.7513C68.6683 23.621 68.8073 23.4985 68.9486 23.3792C69.694 22.7481 70.4417 22.1193 71.1331 21.4288C71.1865 21.3723 71.2585 21.3365 71.3363 21.328C71.7336 21.2827 72.126 21.2039 72.5099 21.0923C73.3253 20.8555 74.0756 20.4382 74.704 19.872C75.204 19.4293 75.6366 18.9173 75.9884 18.352C76.4326 17.6178 76.7239 16.8028 76.8447 15.9554C76.9079 15.5387 76.9396 15.118 76.9398 14.6968C76.9398 9.93716 76.9398 5.1777 76.9398 0.418416C76.9398 0.139559 76.8994 0.122142 77.2383 0.123079C77.929 0.123079 78.6179 0.123079 79.3104 0.123079C79.352 0.123079 79.3938 0.123079 79.4351 0.123079C79.5664 0.130142 79.5863 0.149914 79.5921 0.279468C79.5921 0.326554 79.5921 0.373662 79.5921 0.417936C79.5921 5.22245 79.5921 10.0281 79.5921 14.8348C79.5921 15.9102 79.4441 16.9662 79.095 17.9906C78.7471 19.0281 78.194 19.9867 77.468 20.8103C76.9329 21.4155 76.3472 21.9671 75.674 22.4226C74.9261 22.9278 74.1024 23.3127 73.233 23.563C72.6487 23.7289 72.0503 23.8405 71.4453 23.8965C70.9074 23.9458 70.3669 23.9554 69.8277 23.9257C69.4294 23.9063 69.0333 23.8466 68.6383 23.8046C68.5926 23.8034 68.5492 23.7842 68.5176 23.7513Z" fill="#E4E5E5"/>
<path d="M31.7301 19.1605V23.6926C31.7301 23.939 31.7301 23.9395 31.4821 23.9395H29.5353C29.4936 23.9395 29.4522 23.9395 29.4107 23.9395C29.3156 23.9315 29.2971 23.915 29.2904 23.8165C29.2865 23.76 29.2904 23.7036 29.2904 23.6469C29.2904 20.7331 29.2904 17.8197 29.2904 14.9065C29.2941 14.7533 29.2512 14.6026 29.1667 14.4741C28.3852 13.2673 27.6082 12.0584 26.8355 10.8472C25.8585 9.3248 24.8813 7.80259 23.9046 6.28054L20.9737 1.71154C20.6759 1.2474 20.3783 0.783287 20.0812 0.319151C20.0494 0.269231 19.9861 0.216477 20.0136 0.15666C20.0413 0.0968428 20.1258 0.123677 20.1849 0.123677C21.0155 0.123677 21.8461 0.123677 22.6767 0.119906C22.7328 0.115677 22.7889 0.127723 22.8381 0.15458C22.8872 0.181437 22.9274 0.221939 22.9537 0.271105C23.4579 1.0615 23.9679 1.84859 24.476 2.63663C25.2669 3.86132 26.058 5.086 26.8494 6.31068C27.4565 7.2499 28.0637 8.18883 28.671 9.12743C29.4252 10.2962 30.1787 11.4659 30.9318 12.6366C31.1088 12.8964 31.2704 13.1661 31.4159 13.4444C31.6241 13.8604 31.7319 14.3185 31.731 14.7826C31.728 16.2419 31.7278 17.7011 31.7301 19.1605Z" fill="#E4E5E5"/>
<path d="M61.3265 7.81503V0.399589C61.3265 0.124503 61.3265 0.124503 61.598 0.124023H63.6856C63.7269 0.124023 63.7689 0.124023 63.8102 0.126378C63.9229 0.135338 63.943 0.154652 63.9488 0.267703C63.952 0.328938 63.9488 0.390628 63.9488 0.452342C63.9488 5.22545 63.9488 9.9995 63.9488 14.7745C63.9425 15.5826 64.0683 16.3863 64.3211 17.1546C64.6178 18.0412 65.1183 18.8476 65.7836 19.5098C66.2841 20.0128 66.8353 20.4396 67.482 20.7429C67.8326 20.8985 68.1965 21.0233 68.5691 21.1164C68.7117 21.1545 68.8493 21.1932 68.988 21.2361C69.0832 21.2654 69.0832 21.2832 69.0171 21.3614C68.9966 21.3845 68.9733 21.4057 68.9516 21.4275C68.3493 22.0231 67.7451 22.6172 67.147 23.2172C67.0466 23.3184 66.9653 23.3449 66.824 23.288C65.9115 22.9251 65.0677 22.4119 64.3283 21.7703C62.9439 20.5657 62.0371 19.0766 61.6077 17.3029C61.4729 16.7327 61.3863 16.1523 61.3494 15.5677C61.3221 15.1824 61.3256 14.7976 61.3256 14.4128C61.3249 12.2149 61.3251 10.0157 61.3265 7.81503Z" fill="#E4E5E5"/>
<path d="M39.7014 0.12207H40.9473C40.963 0.12207 40.9787 0.12207 40.9948 0.12207C41.0424 0.125818 41.0976 0.104629 41.1257 0.147967C41.1537 0.191304 41.1066 0.233224 41.0828 0.270435C40.8231 0.672697 40.5625 1.07464 40.3007 1.47626C39.314 2.99267 38.3273 4.50846 37.3407 6.02361C36.7864 6.87429 36.2312 7.72466 35.6755 8.57472C34.8211 9.88763 33.9672 11.2007 33.1133 12.5139C32.9967 12.6934 32.9949 12.6939 32.8755 12.5139C32.4674 11.8898 32.0597 11.2638 31.6458 10.6449C31.5767 10.5417 31.5813 10.4706 31.6458 10.3693C32.4722 9.09316 33.2957 7.81557 34.1161 6.53655L37.2451 1.6727C37.5491 1.20166 37.8545 0.73064 38.1542 0.253955C38.1764 0.211213 38.2108 0.17583 38.253 0.15215C38.2952 0.12847 38.3435 0.117521 38.392 0.120653C38.8292 0.124881 39.2655 0.12207 39.7014 0.12207Z" fill="#E4E5E5"/>
<path d="M0.0512911 8.94927C0.182485 7.95279 0.461079 6.98084 0.878115 6.06468C1.23624 5.2754 1.69561 4.53513 2.2449 3.86215C3.81166 1.92583 6.03177 0.614655 8.497 0.169718C8.901 0.098747 9.30868 0.0498557 9.71822 0.0232272C10.025 0.00251864 10.3314 -0.00550423 10.6372 0.00391289C11.746 0.0339928 12.8428 0.23765 13.887 0.607318C14.6317 0.871157 15.3434 1.21886 16.0078 1.64359C16.4654 1.93838 16.8996 2.26731 17.3066 2.62757C19.1412 4.24619 20.3345 6.45805 20.6733 8.86778C20.7133 9.14239 20.7371 9.41889 20.7544 9.69679C20.7701 9.94314 20.7828 10.1895 20.777 10.4363C20.7451 11.8094 20.4732 13.1315 19.9208 14.393C19.2878 15.8395 18.3274 17.1227 17.1141 18.1433C17.0776 18.1737 17.0538 18.216 17.0466 18.2624C17.0395 18.3088 17.0494 18.3561 17.075 18.3959C17.6776 19.3275 18.2801 20.2592 18.8826 21.1908L20.5953 23.8439C20.6073 23.8605 20.6184 23.8777 20.6286 23.8955C20.6671 23.9682 20.6577 23.9897 20.581 23.9958C20.5448 23.9977 20.5081 23.9977 20.4716 23.9958C19.5777 23.9958 18.6834 23.9931 17.7891 23.9988C17.7281 24.0041 17.6672 23.9917 17.6134 23.9629C17.5596 23.9344 17.5157 23.8905 17.4869 23.8372C16.618 22.4823 15.7458 21.1291 14.8704 19.7778C14.8595 19.7604 14.8466 19.744 14.8367 19.7259C14.7977 19.6521 14.7444 19.6445 14.6686 19.6788C14.4537 19.7703 14.2406 19.8617 14.0197 19.9431C13.2745 20.2201 12.4993 20.4107 11.7096 20.5113C11.4242 20.5469 11.1387 20.5584 10.857 20.5917C10.8413 20.5917 10.8256 20.5917 10.8095 20.5917C10.6573 20.5917 10.6368 20.5771 10.6349 20.4283C10.6317 20.1188 10.6382 19.8098 10.6305 19.5008C10.6225 19.1467 10.6068 18.7915 10.6305 18.4377C10.6349 18.3764 10.6305 18.3143 10.6335 18.2525C10.6359 18.2187 10.6499 18.1869 10.6737 18.1625C10.6973 18.138 10.7289 18.1225 10.7628 18.1188C10.9436 18.1001 11.1246 18.0829 11.3053 18.0633C12.0134 17.9801 12.7066 17.8002 13.3652 17.5291C13.4218 17.5065 13.4878 17.4491 13.5379 17.482C13.6026 17.5264 13.5478 17.6068 13.5379 17.6672C13.3952 18.4061 13.8653 19.3803 14.8515 19.5748C15.858 19.773 16.7724 19.1085 16.9241 18.1805C17.0774 17.2445 16.476 16.5088 15.6872 16.2861C15.6345 16.271 15.5717 16.2766 15.5346 16.2201C15.5468 16.1584 15.5997 16.1287 15.641 16.0925C17.0436 14.8374 17.9428 13.1244 18.1744 11.2668C18.378 9.65064 18.0864 8.10376 17.3181 6.63085C17.1064 6.22491 16.8546 5.8407 16.5665 5.4839C15.3665 4.00016 13.854 3.05543 12.0284 2.64971C10.3235 2.2755 8.54179 2.47079 6.96084 3.20505C5.5036 3.8805 4.28968 4.98084 3.48181 6.3586C2.99386 7.18651 2.66526 8.09688 2.51274 9.04349C2.48372 9.22106 2.46516 9.40006 2.43995 9.57857C2.42139 9.7161 2.41377 9.72554 2.27581 9.72648C1.93281 9.72883 1.58981 9.72648 1.24681 9.72648H0.116461C0.100394 9.72653 0.0844649 9.72328 0.0697365 9.71693C0.054985 9.71057 0.0417341 9.70125 0.0308378 9.68954C0.0199185 9.67786 0.0115853 9.66406 0.00634493 9.64899C0.00110456 9.63395 -0.000926841 9.61798 0.000389021 9.60211L0.0512911 8.94927Z" fill="#E4E5E5"/>
<path d="M15.2322 18.9629C15.0923 18.9666 14.9534 18.9421 14.8236 18.8907C14.6937 18.8395 14.5757 18.7627 14.4769 18.6649C14.3779 18.567 14.3001 18.4502 14.2483 18.3218C14.1964 18.1931 14.1715 18.0555 14.1752 17.9172C14.1819 17.2578 14.7304 16.8856 15.2327 16.8809C15.7466 16.8757 16.2845 17.3049 16.2893 17.9172C16.2939 18.5295 15.7475 18.9977 15.2322 18.9629Z" fill="#E4E5E5"/>
<path d="M8.9569 15.9484V20.2705C8.9569 20.5032 8.9569 20.5089 8.72305 20.4707C8.0298 20.3601 7.34924 20.1823 6.69108 19.94C6.55883 19.8929 6.54313 19.8056 6.54361 19.6883C6.54551 18.3196 6.54551 16.951 6.54361 15.5824C6.54361 15.1142 6.54361 14.6458 6.54361 14.1773C6.54361 14.1363 6.54361 14.0949 6.54361 14.0539C6.53694 13.9526 6.52316 13.9376 6.42516 13.931C6.37329 13.9272 6.32144 13.931 6.26911 13.931H0.872385C0.598362 13.931 0.629297 13.9427 0.54365 13.7002C0.296914 13.0056 0.126244 12.2867 0.034618 11.556C0.0151109 11.4011 0.0436683 11.3676 0.214453 11.3676C0.916639 11.3657 1.6185 11.3657 2.32004 11.3676H8.66718C8.95552 11.3676 8.95552 11.3676 8.95552 11.6582L8.9569 15.9484Z" fill="url(#paint0_linear_2945_14613)"/>
<path d="M89.218 12.2239C89.2284 12.2268 89.2393 12.2266 89.2494 12.2233C89.2596 12.22 89.2686 12.2138 89.2753 12.2055C89.2818 12.1971 89.2857 12.187 89.2864 12.1765C89.2873 12.1659 89.2848 12.1553 89.2794 12.1462C89.1068 11.8686 89.0179 11.5479 89.0234 11.222C89.0207 10.9177 89.1026 10.6186 89.2605 10.3575C89.4184 10.0965 89.646 9.88365 89.9184 9.74248C89.9274 9.73706 89.9346 9.72913 89.9392 9.71967C89.9436 9.71021 89.9452 9.69963 89.9436 9.68927C89.9422 9.67892 89.9376 9.66925 89.9307 9.66145C89.9235 9.65366 89.9143 9.64808 89.9041 9.64545C86.4155 8.68077 85.7481 7.67606 85.7481 6.08633C85.7481 3.06373 89.436 2.73731 91.0217 2.73731C94.3042 2.73731 96.2494 3.9992 96.8004 6.48859L96.971 7.26061C96.9738 7.27254 96.9805 7.28322 96.9899 7.29085C96.9996 7.29846 97.0116 7.3026 97.0239 7.30253H99.6752C99.6828 7.30251 99.6907 7.3008 99.6976 7.29755C99.7048 7.2943 99.711 7.28959 99.7159 7.28372C99.7209 7.27787 99.7246 7.27099 99.7267 7.26358C99.7288 7.25618 99.7292 7.24843 99.7281 7.24084L99.5448 6.10329C99.2551 4.30585 97.8478 0.124512 91.0582 0.124512C86.1244 0.124512 82.9365 2.48814 82.9365 6.14663C82.9342 9.84045 85.7453 11.2691 89.218 12.2239Z" fill="#E4E5E5"/>
<path d="M92.2564 10.2209C92.2461 10.2183 92.235 10.2188 92.2246 10.2224C92.2144 10.226 92.2057 10.2326 92.1992 10.2412C92.1927 10.2499 92.189 10.2603 92.1888 10.271C92.1883 10.2818 92.1913 10.2924 92.1971 10.3015C92.3839 10.5733 92.4848 10.894 92.4868 11.2228C92.4866 11.5286 92.4049 11.8289 92.2495 12.0931C92.0941 12.3574 91.8709 12.5762 91.6024 12.7273C91.5934 12.7329 91.5863 12.741 91.5819 12.7506C91.5775 12.7602 91.5761 12.7709 91.578 12.7813C91.5796 12.7917 91.5844 12.8013 91.5918 12.809C91.5992 12.8167 91.6087 12.822 91.6191 12.8243C96.3919 14.0334 97.1884 15.1837 97.1884 17.351C97.1884 19.8431 94.9343 21.3306 91.1594 21.3306C89.03 21.3306 85.3364 20.7551 84.524 16.8992L84.3594 16.1168C84.3569 16.1049 84.3502 16.0942 84.3407 16.0865C84.3313 16.0788 84.3192 16.0745 84.307 16.0744H81.5735C81.5654 16.0744 81.5575 16.0761 81.5504 16.0795C81.5432 16.0829 81.5368 16.0878 81.5317 16.0939C81.5269 16.0999 81.5232 16.107 81.5211 16.1147C81.5192 16.1223 81.519 16.1303 81.5206 16.138L81.7512 17.3089C82.583 21.5251 85.9996 23.9434 91.1232 23.9434C93.7318 23.9434 95.9312 23.3519 97.4839 22.2319C99.1303 21.0442 100 19.3354 100 17.2911C100.002 13.5676 97.8844 11.6062 92.2564 10.2209Z" fill="#E4E5E5"/>
<defs>
<linearGradient id="paint0_linear_2945_14613" x1="0.0220366" y1="11.3662" x2="9.58399" y2="12.0883" gradientUnits="userSpaceOnUse">
<stop stop-color="#46DF93"/>
<stop offset="1" stop-color="#CFF242"/>
</linearGradient>
</defs>
</svg>
