<svg width="1024" height="1024" viewBox="0 0 1024 1024" fill="none" xmlns="http://www.w3.org/2000/svg">
<rect width="1024" height="1024" rx="128" fill="white"/>
<path d="M144.423 403.53C149.088 368.099 158.994 333.541 173.821 300.967C186.555 272.903 202.888 246.583 222.418 222.654C278.125 153.807 357.063 107.188 444.715 91.3679C459.079 88.8445 473.575 87.1061 488.136 86.1594C499.045 85.423 509.937 85.1378 520.813 85.4726C560.236 86.5421 599.233 93.7833 636.358 106.927C662.838 116.308 688.143 128.671 711.766 143.772C728.035 154.254 743.474 165.949 757.945 178.758C823.175 236.309 865.603 314.953 877.652 400.633C879.072 410.396 879.918 420.227 880.533 430.108C881.091 438.867 881.543 447.627 881.338 456.402C880.205 505.223 870.536 552.233 850.894 597.084C828.387 648.516 794.241 694.141 751.099 730.428C749.802 731.509 748.957 733.013 748.703 734.662C748.448 736.312 748.801 737.994 749.712 739.408C771.135 772.534 792.559 805.66 813.982 838.785L874.878 933.115C875.305 933.708 875.698 934.318 876.06 934.952C877.43 937.536 877.094 938.3 874.369 938.519C873.08 938.584 871.775 938.584 870.478 938.519C838.696 938.519 806.898 938.422 775.1 938.625C772.933 938.812 770.766 938.373 768.854 937.349C766.941 936.333 765.382 934.773 764.356 932.879C733.46 884.703 702.45 836.591 671.325 788.544C670.939 787.927 670.479 787.341 670.126 786.699C668.739 784.074 666.843 783.806 664.151 785.025C656.509 788.276 648.933 791.527 641.078 794.42C614.582 804.27 587.019 811.048 558.939 814.624C548.794 815.891 538.641 816.298 528.627 817.484C528.069 817.484 527.511 817.484 526.936 817.484C521.527 817.484 520.796 816.964 520.731 811.674C520.616 800.67 520.846 789.682 520.575 778.694C520.287 766.106 519.729 753.476 520.575 740.896C520.731 738.718 520.575 736.507 520.681 734.313C520.763 733.11 521.264 731.98 522.11 731.111C522.947 730.241 524.071 729.689 525.278 729.559C531.705 728.892 538.14 728.283 544.567 727.584C569.741 724.626 594.39 718.23 617.808 708.591C619.819 707.786 622.166 705.747 623.948 706.917C626.246 708.494 624.301 711.354 623.948 713.5C618.875 739.774 635.587 774.411 670.652 781.327C706.439 788.373 738.951 764.748 744.344 731.753C749.794 698.473 728.412 672.315 700.365 664.393C698.494 663.857 696.261 664.058 694.94 662.049C695.375 659.854 697.254 658.799 698.724 657.51C748.596 612.886 780.567 551.979 788.799 485.929C796.039 428.467 785.672 373.467 758.355 321.097C750.829 306.664 741.873 293.003 731.63 280.317C688.964 227.561 635.185 193.971 570.275 179.546C509.658 166.24 446.308 173.184 390.096 199.291C338.283 223.307 295.122 262.43 266.397 311.417C249.048 340.854 237.365 373.223 231.941 406.88C230.91 413.194 230.25 419.558 229.353 425.905C228.693 430.795 228.423 431.131 223.517 431.164C211.322 431.248 199.126 431.164 186.931 431.164H146.74C146.169 431.166 145.603 431.05 145.079 430.824C144.555 430.598 144.083 430.267 143.696 429.851C143.308 429.435 143.012 428.944 142.825 428.409C142.639 427.874 142.567 427.306 142.613 426.742L144.423 403.53Z" fill="#130F33"/>
<path d="M684.197 759.571C679.223 759.701 674.282 758.831 669.669 757.002C665.048 755.182 660.853 752.451 657.34 748.973C653.819 745.495 651.053 741.342 649.214 736.774C647.367 732.199 646.481 727.307 646.612 722.39C646.85 698.943 666.353 685.711 684.214 685.544C702.485 685.359 721.61 700.618 721.782 722.39C721.946 744.162 702.518 760.806 684.197 759.571Z" fill="#130F33"/>
<path d="M461.075 652.38V806.056C461.075 814.329 461.075 814.532 452.761 813.175C428.112 809.241 403.914 802.919 380.513 794.304C375.81 792.63 375.252 789.525 375.27 785.356C375.337 736.692 375.337 688.028 375.27 639.367C375.27 622.72 375.27 606.067 375.27 589.409C375.27 587.952 375.27 586.478 375.27 585.021C375.032 581.42 374.542 580.884 371.058 580.65C369.214 580.516 367.37 580.65 365.509 580.65H173.626C163.883 580.65 164.983 581.069 161.938 572.443C153.165 547.747 147.096 522.188 143.839 496.208C143.145 490.697 144.16 489.508 150.233 489.508C175.199 489.442 200.154 489.442 225.098 489.508H450.774C461.026 489.508 461.026 489.508 461.026 499.842L461.075 652.38Z" fill="url(#paint0_linear_12421_22596)"/>
<defs>
<linearGradient id="paint0_linear_12421_22596" x1="143.391" y1="489.458" x2="483.372" y2="515.132" gradientUnits="userSpaceOnUse">
<stop stop-color="#46DF93"/>
<stop offset="1" stop-color="#CFF242"/>
</linearGradient>
</defs>
</svg>
